<mxfile host="app.diagrams.net" agent="Mozilla/5.0 (X11; Linux x86_64) AppleWebKit/537.36 (KHTML, like Gecko) Chrome/129.0.0.0 Safari/537.36" version="24.8.2">
  <diagram id="C5RBs43oDa-KdzZeNtuy" name="Page-1">
    <mxGraphModel dx="2191" dy="759" grid="1" gridSize="10" guides="1" tooltips="1" connect="1" arrows="1" fold="1" page="1" pageScale="1" pageWidth="827" pageHeight="1169" math="0" shadow="0">
      <root>
        <mxCell id="WIyWlLk6GJQsqaUBKTNV-0" />
        <mxCell id="WIyWlLk6GJQsqaUBKTNV-1" parent="WIyWlLk6GJQsqaUBKTNV-0" />
        <mxCell id="moRG-3gZq21M7UtmV8Sn-2" style="edgeStyle=orthogonalEdgeStyle;rounded=0;orthogonalLoop=1;jettySize=auto;html=1;" edge="1" parent="WIyWlLk6GJQsqaUBKTNV-1" source="WIyWlLk6GJQsqaUBKTNV-3">
          <mxGeometry relative="1" as="geometry">
            <mxPoint x="320" y="100" as="targetPoint" />
          </mxGeometry>
        </mxCell>
        <mxCell id="WIyWlLk6GJQsqaUBKTNV-3" value="Audio Extraction" style="rounded=1;whiteSpace=wrap;html=1;fontSize=12;glass=0;strokeWidth=1;shadow=0;" parent="WIyWlLk6GJQsqaUBKTNV-1" vertex="1">
          <mxGeometry x="160" y="80" width="120" height="40" as="geometry" />
        </mxCell>
        <mxCell id="moRG-3gZq21M7UtmV8Sn-1" style="edgeStyle=orthogonalEdgeStyle;rounded=0;orthogonalLoop=1;jettySize=auto;html=1;entryX=0;entryY=0.5;entryDx=0;entryDy=0;" edge="1" parent="WIyWlLk6GJQsqaUBKTNV-1" source="moRG-3gZq21M7UtmV8Sn-0" target="WIyWlLk6GJQsqaUBKTNV-3">
          <mxGeometry relative="1" as="geometry" />
        </mxCell>
        <mxCell id="moRG-3gZq21M7UtmV8Sn-0" value="UPLOADED VIDEO" style="ellipse;whiteSpace=wrap;html=1;" vertex="1" parent="WIyWlLk6GJQsqaUBKTNV-1">
          <mxGeometry x="-20" y="60" width="120" height="80" as="geometry" />
        </mxCell>
        <mxCell id="moRG-3gZq21M7UtmV8Sn-4" style="edgeStyle=orthogonalEdgeStyle;rounded=0;orthogonalLoop=1;jettySize=auto;html=1;" edge="1" parent="WIyWlLk6GJQsqaUBKTNV-1" source="moRG-3gZq21M7UtmV8Sn-3" target="moRG-3gZq21M7UtmV8Sn-5">
          <mxGeometry relative="1" as="geometry">
            <mxPoint x="520" y="100" as="targetPoint" />
          </mxGeometry>
        </mxCell>
        <mxCell id="moRG-3gZq21M7UtmV8Sn-14" style="edgeStyle=orthogonalEdgeStyle;rounded=0;orthogonalLoop=1;jettySize=auto;html=1;entryX=0.5;entryY=0;entryDx=0;entryDy=0;" edge="1" parent="WIyWlLk6GJQsqaUBKTNV-1" source="moRG-3gZq21M7UtmV8Sn-3" target="moRG-3gZq21M7UtmV8Sn-13">
          <mxGeometry relative="1" as="geometry" />
        </mxCell>
        <mxCell id="moRG-3gZq21M7UtmV8Sn-3" value="Finding time stamps of silence as well as voice" style="rounded=1;whiteSpace=wrap;html=1;" vertex="1" parent="WIyWlLk6GJQsqaUBKTNV-1">
          <mxGeometry x="320" y="70" width="150" height="60" as="geometry" />
        </mxCell>
        <mxCell id="moRG-3gZq21M7UtmV8Sn-6" style="edgeStyle=orthogonalEdgeStyle;rounded=0;orthogonalLoop=1;jettySize=auto;html=1;" edge="1" parent="WIyWlLk6GJQsqaUBKTNV-1" source="moRG-3gZq21M7UtmV8Sn-5" target="moRG-3gZq21M7UtmV8Sn-7">
          <mxGeometry relative="1" as="geometry">
            <mxPoint x="595" y="180" as="targetPoint" />
          </mxGeometry>
        </mxCell>
        <mxCell id="moRG-3gZq21M7UtmV8Sn-5" value="Splitting the audio into multiple parts if there is a silence gap of 0.5 seconds or more" style="rounded=1;whiteSpace=wrap;html=1;" vertex="1" parent="WIyWlLk6GJQsqaUBKTNV-1">
          <mxGeometry x="520" y="60" width="150" height="80" as="geometry" />
        </mxCell>
        <mxCell id="moRG-3gZq21M7UtmV8Sn-8" style="edgeStyle=orthogonalEdgeStyle;rounded=0;orthogonalLoop=1;jettySize=auto;html=1;" edge="1" parent="WIyWlLk6GJQsqaUBKTNV-1" source="moRG-3gZq21M7UtmV8Sn-7">
          <mxGeometry relative="1" as="geometry">
            <mxPoint x="595" y="280" as="targetPoint" />
          </mxGeometry>
        </mxCell>
        <mxCell id="moRG-3gZq21M7UtmV8Sn-7" value="Conversion from speech to text for each part" style="rounded=1;whiteSpace=wrap;html=1;" vertex="1" parent="WIyWlLk6GJQsqaUBKTNV-1">
          <mxGeometry x="535" y="180" width="120" height="60" as="geometry" />
        </mxCell>
        <mxCell id="moRG-3gZq21M7UtmV8Sn-10" style="edgeStyle=orthogonalEdgeStyle;rounded=0;orthogonalLoop=1;jettySize=auto;html=1;" edge="1" parent="WIyWlLk6GJQsqaUBKTNV-1" source="moRG-3gZq21M7UtmV8Sn-9">
          <mxGeometry relative="1" as="geometry">
            <mxPoint x="480" y="310" as="targetPoint" />
          </mxGeometry>
        </mxCell>
        <mxCell id="moRG-3gZq21M7UtmV8Sn-9" value="Correcting grammatical errors of each part using GEMINI API" style="rounded=1;whiteSpace=wrap;html=1;" vertex="1" parent="WIyWlLk6GJQsqaUBKTNV-1">
          <mxGeometry x="535" y="280" width="120" height="60" as="geometry" />
        </mxCell>
        <mxCell id="moRG-3gZq21M7UtmV8Sn-12" style="edgeStyle=orthogonalEdgeStyle;rounded=0;orthogonalLoop=1;jettySize=auto;html=1;" edge="1" parent="WIyWlLk6GJQsqaUBKTNV-1" source="moRG-3gZq21M7UtmV8Sn-11" target="moRG-3gZq21M7UtmV8Sn-13">
          <mxGeometry relative="1" as="geometry">
            <mxPoint x="320" y="310" as="targetPoint" />
          </mxGeometry>
        </mxCell>
        <mxCell id="moRG-3gZq21M7UtmV8Sn-11" value="Voice generation of each part using corrected texts" style="rounded=1;whiteSpace=wrap;html=1;" vertex="1" parent="WIyWlLk6GJQsqaUBKTNV-1">
          <mxGeometry x="360" y="280" width="120" height="60" as="geometry" />
        </mxCell>
        <mxCell id="moRG-3gZq21M7UtmV8Sn-16" style="edgeStyle=orthogonalEdgeStyle;rounded=0;orthogonalLoop=1;jettySize=auto;html=1;entryX=1;entryY=0.5;entryDx=0;entryDy=0;" edge="1" parent="WIyWlLk6GJQsqaUBKTNV-1" source="moRG-3gZq21M7UtmV8Sn-13" target="moRG-3gZq21M7UtmV8Sn-15">
          <mxGeometry relative="1" as="geometry" />
        </mxCell>
        <mxCell id="moRG-3gZq21M7UtmV8Sn-13" value="Voice speed adjustment of each part according to the time stamps" style="rounded=1;whiteSpace=wrap;html=1;" vertex="1" parent="WIyWlLk6GJQsqaUBKTNV-1">
          <mxGeometry x="200" y="280" width="120" height="60" as="geometry" />
        </mxCell>
        <mxCell id="moRG-3gZq21M7UtmV8Sn-17" style="edgeStyle=orthogonalEdgeStyle;rounded=0;orthogonalLoop=1;jettySize=auto;html=1;" edge="1" parent="WIyWlLk6GJQsqaUBKTNV-1" source="moRG-3gZq21M7UtmV8Sn-15">
          <mxGeometry relative="1" as="geometry">
            <mxPoint y="310" as="targetPoint" />
          </mxGeometry>
        </mxCell>
        <mxCell id="moRG-3gZq21M7UtmV8Sn-15" value="Merging new voice with the video at the respective time stamps" style="rounded=1;whiteSpace=wrap;html=1;" vertex="1" parent="WIyWlLk6GJQsqaUBKTNV-1">
          <mxGeometry x="40" y="280" width="120" height="60" as="geometry" />
        </mxCell>
        <mxCell id="moRG-3gZq21M7UtmV8Sn-18" value="CORRECTED VIDEO" style="ellipse;whiteSpace=wrap;html=1;" vertex="1" parent="WIyWlLk6GJQsqaUBKTNV-1">
          <mxGeometry x="-120" y="270" width="120" height="80" as="geometry" />
        </mxCell>
      </root>
    </mxGraphModel>
  </diagram>
</mxfile>
